<svg width="285" height="117" viewBox="0 0 285 117" fill="none" xmlns="http://www.w3.org/2000/svg">
<path d="M281.938 3V21.1792H246.584V32.6037H275.168V50.0937H246.584V62.9656H281.938V81.7652H223.003V3H281.938Z" fill="white"/>
<path d="M138.285 81.7652H114.08V3H138.285V81.7652Z" fill="white"/>
<path d="M65.1671 3L76.7892 48.4222L87.777 3H106.187L85.3943 81.7652H65.1843L54.2307 38.3246L43.8771 81.7652H22.81L2 3H24.627L35.5977 48.3361L46.277 3H65.1671Z" fill="white"/>
<path d="M180.09 30.2721C189.22 32.1966 195.682 33.8865 199.521 35.3885C203.36 36.8906 206.544 39.4254 209.166 43.0397C211.741 46.6541 213.005 50.9257 213.005 55.8074C213.005 63.5056 209.915 69.7955 203.641 74.5834C197.367 79.3713 189.173 81.7652 179.013 81.7652C160.425 81.7652 148.954 74.0201 144.6 58.483L166.325 54.587C168.151 60.7361 172.88 63.8341 180.418 63.8341C186.27 63.8341 189.22 62.2851 189.22 59.1401C189.22 57.4972 188.518 56.1829 187.16 55.2911C185.802 54.3523 183.368 53.5543 179.856 52.8502C166.465 50.2685 157.897 46.8888 154.104 42.7581C150.312 38.6274 148.392 33.7457 148.392 28.1598C148.392 20.9311 151.155 14.9697 156.586 10.1818C162.064 5.39393 169.883 3 180.137 3C195.635 3 205.889 9.28995 210.898 21.776L191.514 27.6435C189.501 22.527 185.428 19.9922 179.294 19.9922C174.191 19.9922 171.662 21.5413 171.662 24.7332C171.662 26.1414 172.224 27.221 173.395 28.019C174.518 28.8169 176.766 29.568 180.09 30.2721Z" fill="white"/>
<path d="M22.8931 114.569H31.2287V104.076H40.3361V97.7695H31.2287V93.2034H43.0803V86.5179H22.8931V114.569ZM69.6994 99.0618C70.3511 97.8212 70.677 96.391 70.677 94.7714C70.677 92.2902 69.7851 90.2914 68.0014 88.7751C66.2176 87.2588 63.7307 86.5007 60.5062 86.5007H45.9275V114.552H54.5032V103.817H57.2131L61.2952 114.552H70.7971L65.7374 102.318C67.727 101.388 69.0476 100.302 69.6994 99.0618ZM60.7635 97.1664C60.1117 97.6144 59.237 97.8384 58.1736 97.8384H54.5203V92.4797H58.4652C60.6606 92.4797 61.7583 93.3757 61.7583 95.1677C61.7411 96.0464 61.4152 96.7012 60.7635 97.1664ZM73.9872 114.569H94.9978V107.867H82.3915V103.283H92.5794V97.063H82.3915V92.9966H94.9978V86.5179H73.9872V114.569ZM115.957 97.9763C114.55 97.4249 112.184 96.8046 108.839 96.0981C107.621 95.8397 106.798 95.564 106.386 95.2711C105.958 94.9781 105.752 94.5818 105.752 94.0649C105.752 92.8932 106.678 92.3246 108.547 92.3246C110.794 92.3246 112.286 93.2551 113.024 95.1332L120.125 92.9794C118.289 88.3961 114.533 86.0872 108.856 86.0872C105.1 86.0872 102.236 86.9659 100.229 88.7234C98.2394 90.481 97.2275 92.6692 97.2275 95.3227C97.2275 97.3732 97.9307 99.1652 99.3199 100.681C100.709 102.198 103.848 103.438 108.753 104.386C110.04 104.644 110.931 104.937 111.429 105.282C111.926 105.609 112.184 106.092 112.184 106.695C112.184 107.849 111.103 108.418 108.959 108.418C106.198 108.418 104.465 107.281 103.796 105.024L95.8382 106.454C97.4333 112.157 101.635 115 108.445 115C112.166 115 115.168 114.121 117.466 112.364C119.764 110.606 120.896 108.297 120.896 105.472C120.896 103.68 120.433 102.112 119.49 100.785C118.53 99.4581 117.363 98.5276 115.957 97.9763ZM138.545 96.839H131.993V86.5179H123.418V114.569H131.993V103.662H138.545V114.569H147.121V86.5179H138.545V96.839ZM180.755 86.5179L176.845 102.697L172.694 86.5179H165.97L162.163 102.663L158.252 86.5179H150.191L157.618 114.569H165.13L168.818 99.0962L172.728 114.569H179.932L187.307 86.5179H180.755ZM194.956 86.5179L186.329 114.569H193.293L194.974 109.038H202.452L204.03 114.569H212.777L204.012 86.5179H194.956ZM196.431 102.921L198.695 94.7886L200.959 102.921H196.431ZM210.993 93.2378H216.79V114.569H224.92V93.2378H230.717V86.5179H211.01V93.2378H210.993ZM232.432 114.569H253.443V107.867H240.837V103.283H251.025V97.063H240.837V92.9966H253.443V86.5179H232.432V114.569ZM276.94 102.336C278.93 101.388 280.251 100.302 280.902 99.0618C281.554 97.8212 281.88 96.391 281.88 94.7714C281.88 92.2902 280.988 90.2914 279.204 88.7751C277.421 87.2588 274.934 86.5007 271.709 86.5007H257.13V114.552H265.706V103.817H268.416L272.498 114.552H282L276.94 102.336ZM271.966 97.1664C271.315 97.6144 270.44 97.8384 269.377 97.8384H265.723V92.4797H269.668C271.864 92.4797 272.961 93.3757 272.961 95.1677C272.961 96.0464 272.635 96.7012 271.966 97.1664Z" fill="white"/>
</svg>
