<svg width="285" height="117" viewBox="0 0 285 117" fill="none" xmlns="http://www.w3.org/2000/svg">
<path d="M281.999 2.56152V20.7398H246.613V32.1637H275.224V49.6527H246.613V62.524H281.999V81.3225H223.011V2.56152H281.999Z" fill="#47B3FF"/>
<path d="M137.97 81.3225H113.905V2.56152H137.97V81.3225Z" fill="#47B3FF"/>
<path d="M65.2076 2.56152L76.8371 47.9814L87.8319 2.56152H106.254L85.4477 81.3225H65.2247L54.2642 37.8842L43.904 81.3225H22.8233L2 2.56152H24.6415L35.6192 47.8952L46.3053 2.56152H65.2076Z" fill="#47B3FF"/>
<path d="M180.154 29.8152C189.311 31.7425 195.792 33.4348 199.643 34.939C203.494 36.4432 206.687 38.9816 209.317 42.6011C211.9 46.2207 213.168 50.4983 213.168 55.3871C213.168 63.0962 210.068 69.3952 203.776 74.1899C197.483 78.9846 189.264 81.382 179.074 81.382C160.43 81.382 148.925 73.6258 144.557 58.0665L166.347 54.1649C168.179 60.3228 172.922 63.4253 180.483 63.4253C186.353 63.4253 189.311 61.874 189.311 58.7246C189.311 57.0793 188.607 55.7631 187.245 54.87C185.883 53.9298 183.441 53.1307 179.919 52.4256C166.488 49.8402 157.894 46.4557 154.09 42.3191C150.286 38.1825 148.361 33.2938 148.361 27.6999C148.361 20.4608 151.132 14.4909 156.579 9.69622C162.074 4.9015 169.916 2.50415 180.201 2.50415C195.745 2.50415 206.03 8.80309 211.055 21.307L191.612 27.1828C189.593 22.0591 185.508 19.5207 179.356 19.5207C174.237 19.5207 171.701 21.0719 171.701 24.2684C171.701 25.6786 172.264 26.7598 173.438 27.5589C174.565 28.358 176.82 29.1101 180.154 29.8152Z" fill="#47B3FF"/>
<path d="M22.8228 114.074H31.1589V103.58H40.267V97.2739H31.1589V92.7078H43.0114V86.0223H22.8228V114.074ZM69.6324 98.5662C70.2842 97.3256 70.6101 95.8954 70.6101 94.2758C70.6101 91.7946 69.7181 89.7958 67.9343 88.2795C66.1504 86.7632 63.6633 86.0051 60.4386 86.0051H45.8588V114.056H54.4351V103.322H57.1452L61.2276 114.056H70.7302L65.6701 101.823C67.6598 100.892 68.9806 99.8068 69.6324 98.5662ZM60.6958 96.6708C60.044 97.1188 59.1693 97.3428 58.1058 97.3428H54.4523V91.9841H58.3974C60.5929 91.9841 61.6907 92.8801 61.6907 94.6721C61.6735 95.5508 61.3476 96.2056 60.6958 96.6708ZM73.9206 114.074H94.9326V107.371H82.3254V102.788H92.514V96.5674H82.3254V92.501H94.9326V86.0223H73.9206V114.074ZM115.893 97.4807C114.487 96.9293 112.12 96.309 108.775 95.6025C107.557 95.3441 106.734 95.0684 106.322 94.7755C105.893 94.4825 105.687 94.0862 105.687 93.5693C105.687 92.3976 106.614 91.829 108.483 91.829C110.73 91.829 112.222 92.7595 112.96 94.6376L120.061 92.4838C118.226 87.9005 114.469 85.5916 108.792 85.5916C105.035 85.5916 102.171 86.4703 100.164 88.2278C98.1744 89.9854 97.1624 92.1736 97.1624 94.8271C97.1624 96.8776 97.8657 98.6696 99.255 100.186C100.644 101.702 103.783 102.943 108.689 103.89C109.975 104.149 110.867 104.442 111.365 104.786C111.862 105.114 112.12 105.596 112.12 106.199C112.12 107.354 111.039 107.922 108.895 107.922C106.133 107.922 104.401 106.785 103.732 104.528L95.773 105.958C97.3682 111.661 101.571 114.504 108.38 114.504C112.102 114.504 115.104 113.626 117.403 111.868C119.701 110.111 120.833 107.802 120.833 104.976C120.833 103.184 120.37 101.616 119.427 100.289C118.466 98.9625 117.3 98.032 115.893 97.4807ZM138.483 96.3434H131.931V86.0223H123.355V114.074H131.931V103.167H138.483V114.074H147.06V86.0223H138.483V96.3434ZM180.696 86.0223L176.785 102.202L172.634 86.0223H165.91L162.102 102.167L158.192 86.0223H150.13L157.557 114.074H165.07L168.758 98.6006L172.668 114.074H179.873L187.248 86.0223H180.696ZM194.898 86.0223L186.271 114.074H193.234L194.915 108.543H202.394L203.972 114.074H212.72L203.955 86.0223H194.898ZM196.373 102.426L198.638 94.293L200.902 102.426H196.373ZM210.936 92.7422H216.734V114.074H224.864V92.7422H230.662V86.0223H210.953V92.7422H210.936ZM232.377 114.074H253.389V107.371H240.782V102.788H250.97V96.5674H240.782V92.501H253.389V86.0223H232.377V114.074ZM276.888 101.84C278.878 100.892 280.199 99.8068 280.85 98.5662C281.502 97.3256 281.828 95.8954 281.828 94.2758C281.828 91.7946 280.936 89.7958 279.152 88.2795C277.368 86.7632 274.881 86.0051 271.657 86.0051H257.077V114.056H265.653V103.322H268.363L272.446 114.056H281.948L276.888 101.84ZM271.914 96.6708C271.262 97.1188 270.387 97.3428 269.324 97.3428H265.67V91.9841H269.615C271.811 91.9841 272.909 92.8801 272.909 94.6721C272.909 95.5508 272.583 96.2056 271.914 96.6708Z" fill="#47B3FF"/>
<path fill-rule="evenodd" clip-rule="evenodd" d="M117.828 51.0366V46.8006C119.467 47.0716 122.762 47.4947 125.832 47.4947C128.925 47.4947 132.454 46.9595 134.218 46.6211V51.0463C132.915 50.7774 129.936 50.3665 125.832 50.3665C121.778 50.3665 119.021 50.7676 117.828 51.0366ZM125.832 46.7289C128.145 46.7289 130.72 46.4216 132.58 46.1282C132.398 46.1039 132.203 46.0799 131.994 46.0565C130.584 45.8988 128.566 45.7717 125.832 45.7717C123.099 45.7717 121.145 45.8988 119.816 46.0562C119.459 46.0985 119.148 46.1429 118.88 46.1874C120.634 46.4382 123.315 46.7289 125.832 46.7289ZM125.832 45.0059C123.077 45.0059 121.092 45.134 119.727 45.2957C119.045 45.3765 118.514 45.4661 118.118 45.5532C117.731 45.6383 117.447 45.726 117.276 45.8121L117.065 45.9179V46.1546V46.346V60.3219V60.3266L117.066 60.3313C117.129 62.9523 117.291 67.1318 117.571 71.156C117.85 75.1663 118.249 79.0651 118.794 81.0982L118.87 81.3815H119.162H132.693H132.983L133.06 81.1019C133.518 79.4587 134.523 73.0495 134.98 60.3358L134.98 60.3289V60.3219V46.1546V45.8953L134.741 45.799C134.372 45.6507 133.508 45.4553 132.078 45.2954C130.635 45.134 128.588 45.0059 125.832 45.0059ZM117.828 51.5154C118.691 51.998 121.643 53.0317 126.219 53.0317C130.799 53.0317 133.491 51.9966 134.218 51.5274V52.0272C133.033 52.6124 130.333 53.4299 126.219 53.4299C122.012 53.4299 119.091 52.5749 117.828 51.9974V51.5154ZM118.715 65.0088C118.973 69.6702 119.369 76.8206 120.115 78.3183C120.496 79.0841 123.736 79.467 125.26 78.8926C125.92 78.6442 125.494 78.3017 124.711 77.6716C123.786 76.9272 122.362 75.7814 121.639 73.9149C120.981 72.2147 120.174 68.5798 119.553 65.7818C118.916 62.9086 118.474 60.9178 118.59 62.8107C118.628 63.4351 118.669 64.1829 118.715 65.0088Z" fill="#A1D8FF"/>
<path fill-rule="evenodd" clip-rule="evenodd" d="M59.7436 59.6031L65.2239 81.3223H83.0843C83.6273 79.1085 84.5226 75.2552 81.2826 69.5116C80.44 68.0179 79.4057 66.6637 78.4183 65.3709L78.4178 65.3702C76.1954 62.4604 74.2107 59.8618 75.1839 56.6844C76.7086 51.7067 79.8585 48.2606 80.7109 48.2606C80.8579 48.2606 80.8895 48.3725 80.9501 48.5878C81.0467 48.9305 81.2172 49.5351 82.045 50.3665C83.3791 51.7067 89.1114 55.7684 89.859 55.9186C90.732 56.094 90.2186 55.0909 89.931 54.529C89.9047 54.4775 89.8803 54.4298 89.859 54.387C89.3421 53.5217 88.5839 52.4295 87.8939 51.4357C87.0574 50.2308 86.3214 49.1707 86.2378 48.8349C86.1155 48.3435 86.3857 47.7732 86.6452 47.2253L86.6454 47.2249L86.6457 47.2243C86.7905 46.9187 86.932 46.6201 87.0002 46.3461C87.01 46.3068 87.0212 46.263 87.0336 46.2151C87.262 45.3282 87.8554 43.0227 86.0473 41.7512C84.329 40.543 81.2167 40.7353 78.805 42.328L78.0723 42.8749L76.8363 47.9811L76.0254 44.8145C73.0394 48.184 70.6021 51.5188 70.0381 56.6844C69.5865 60.8205 70.8281 65.4589 72.9235 69.0431C74.1154 71.0812 76.1526 74.5649 74.4216 75.8295C72.3251 77.3611 70.4193 73.3407 69.4663 71.0432L69.4647 71.0392C68.5096 68.7368 65.4547 61.372 59.7436 59.6031ZM85.0454 46.9994C85.0454 47.3166 84.7894 47.5738 84.4736 47.5738C84.1578 47.5738 83.9018 47.3166 83.9018 46.9994C83.9018 46.6822 84.1578 46.425 84.4736 46.425C84.7894 46.425 85.0454 46.6822 85.0454 46.9994ZM39.3545 81.3222H43.9037L49.2776 58.7903C49.0193 58.7265 48.1215 58.7137 47.3591 59.1732C46.4062 59.7476 46.7874 60.3219 47.9308 60.8962C48.312 61.0877 48.312 62.0449 46.9779 61.4706C46.5629 61.2919 46.2402 61.1133 45.9695 60.9634C45.3698 60.6316 45.0255 60.441 44.5003 60.7048C43.9921 60.9601 44.6698 61.5557 45.3474 62.1513C45.6862 62.4491 46.025 62.7469 46.2156 63.0022C46.9478 63.9829 46.2156 64.7253 45.2626 63.9595C44.3097 63.1937 43.6119 62.7945 42.785 63.0022C42.0227 63.1937 41.8321 64.1509 42.9756 65.1082C44.6321 66.4948 45.0721 68.1714 43.1662 68.3628C38.2356 68.8581 37.6393 71.0432 37.8298 73.7235C38.0019 76.1442 41.2832 77.3156 43.0403 77.9429C43.2288 78.0102 43.3997 78.0712 43.5473 78.1268C44.6909 78.7012 43.7379 79.2755 41.8321 79.2755C39.9262 79.2755 39.3545 78.7012 38.9733 78.3183C38.8937 78.2384 38.8142 78.1418 38.7381 78.0494C38.4496 77.6991 38.211 77.4093 38.211 78.3183C38.211 79.2372 38.9733 80.7038 39.3545 81.3222Z" fill="#A1D8FF"/>
<path fill-rule="evenodd" clip-rule="evenodd" d="M33.4474 103.58C29.6409 102.433 26.4991 101.344 24.2457 100.467L23.9702 101.181C25.8161 101.9 28.2528 102.759 31.1594 103.676V103.58H33.4474ZM45.8592 106.87V107.656C48.5903 108.284 51.462 108.885 54.4356 109.433V108.654C51.4606 108.104 48.5886 107.5 45.8592 106.87ZM59.5031 109.52L59.8163 110.344C63.0413 110.842 66.3527 111.263 69.706 111.579L69.3747 110.778C66.0257 110.454 62.7201 110.025 59.5031 109.52ZM73.921 111.149V111.917C76.7754 112.104 79.6464 112.207 82.5072 112.207C87.0854 112.207 91.1934 112.156 94.933 112.049V111.283C91.1969 111.39 87.0891 111.441 82.5072 111.441C79.6468 111.441 76.7757 111.338 73.921 111.149ZM98.6526 111.153C98.9095 111.412 99.1802 111.656 99.4646 111.884C107.415 111.529 113.633 110.869 119.367 109.854C119.564 109.572 119.742 109.281 119.9 108.98C113.837 110.09 107.268 110.794 98.6526 111.153ZM123.355 108.294V109.077C126.209 108.47 129.012 107.766 131.931 106.961V106.167C129.006 106.977 126.204 107.684 123.355 108.294ZM138.484 104.259V105.059C140.84 104.349 143.327 103.58 146.012 102.749C146.358 102.642 146.707 102.534 147.06 102.425V101.624C146.63 101.757 146.206 101.888 145.786 102.018L145.785 102.018C143.182 102.823 140.77 103.569 138.484 104.259ZM153.708 99.5356L153.905 100.277C155.002 99.912 156.163 99.5158 157.39 99.0969L157.391 99.0968C158.553 98.7002 159.774 98.2834 161.058 97.8533L160.877 97.1059C159.565 97.5452 158.319 97.9706 157.136 98.3745C155.929 98.7866 154.787 99.1763 153.708 99.5356ZM163.501 96.239L163.295 97.1121C166.667 96.0091 170.43 94.849 174.615 93.7415L174.425 92.9998C170.402 94.064 166.769 95.1762 163.501 96.239ZM179.304 91.7842L179.102 92.6178C181.265 92.1071 183.529 91.6175 185.897 91.1613L186.113 90.341C183.74 90.7925 181.472 91.2776 179.304 91.7842ZM193.971 89.0393L193.722 89.8476C197.206 89.3476 200.886 88.9316 204.77 88.6294L204.536 87.8799C200.831 88.172 197.312 88.5671 193.971 89.0393ZM210.954 87.49V88.2564C213.559 88.1441 216.248 88.0842 219.025 88.0842C222.905 88.0842 226.803 88.2542 230.662 88.5568V87.7887C226.803 87.4875 222.905 87.3184 219.025 87.3184C216.249 87.3184 213.559 87.3781 210.954 87.49ZM232.377 87.9314V88.7001C239.681 89.3477 246.814 90.4527 253.389 91.7578V90.9773C246.81 89.676 239.679 88.5759 232.377 87.9314ZM257.077 91.739V92.5223C260.099 93.1751 262.977 93.8622 265.671 94.5558V93.7653C262.975 93.0736 260.096 92.3891 257.077 91.739ZM272.72 95.7013C272.615 95.9505 272.467 96.1724 272.275 96.3685C275.499 97.3109 278.302 98.2197 280.576 99.0221C280.678 98.8725 280.77 98.7205 280.851 98.566C280.889 98.4935 280.926 98.4204 280.962 98.3466C278.707 97.5477 275.923 96.642 272.72 95.7013Z" fill="#A1D8FF"/>
<path fill-rule="evenodd" clip-rule="evenodd" d="M261.604 19.3267C261.856 19.6373 261.999 20.0939 262.062 20.7397H249.559C249.622 20.0939 249.765 19.6373 250.016 19.3267C250.385 18.8705 250.944 18.7773 251.618 18.7773H252.56C252.537 17.8894 252.84 17.0937 253.233 16.4559C253.625 15.8172 254.114 15.326 254.476 15.0441V14.1755C252.718 13.6376 251.408 12.0641 251.252 10.1621H248.378C247.869 10.9279 246.357 12.4595 244.375 12.4595C241.898 12.4595 240.564 11.1193 240.564 9.01334C240.564 6.90738 242.47 5.95013 244.375 5.95013C245.9 5.95013 247.679 7.22647 248.378 7.86464L251.651 7.86464C252.374 6.28285 253.964 5.18433 255.81 5.18433C258.077 5.18433 259.958 6.84021 260.321 9.01334H263.243C263.752 8.24754 265.264 6.71593 267.246 6.71593C269.723 6.71593 271.057 8.05609 271.057 10.1621C271.057 12.268 269.151 13.2253 267.246 13.2253C265.721 13.2253 263.942 11.9489 263.243 11.3108H260.124C259.643 12.6795 258.534 13.7506 257.145 14.1755V15.0441C257.507 15.326 257.995 15.8172 258.388 16.4559C258.781 17.0937 259.084 17.8894 259.061 18.7773H260.003C260.677 18.7773 261.236 18.8705 261.604 19.3267ZM246.614 26.6268H237.895C232.254 26.6268 230.336 29.4348 230.081 30.8388V47.3035C229.129 47.3035 228.366 47.5715 228.366 48.6437C228.366 49.7158 229.129 49.9838 230.272 49.9838H240.945C241.898 49.9838 242.47 49.5627 242.47 48.6437C242.47 47.7247 241.898 47.3035 240.945 47.3035V38.8797H275.224V32.1636H246.614V26.6268ZM231.797 65.452C231.797 62.5205 235.575 54.8383 235.958 54.067C235.972 54.0388 236.007 54.0388 236.021 54.067C236.404 54.8383 240.182 62.5205 240.182 65.452C240.182 68.5401 238.305 71.0434 235.99 71.0434C233.674 71.0434 231.797 68.5401 231.797 65.452ZM282 20.3234V20.7397H277.69C278.211 19.6828 278.981 18.5859 279.824 18.5859C280.584 18.5859 281.382 19.4269 282 20.3234ZM237.658 68.8178C237.949 68.9426 238.352 68.6497 238.559 68.1637C238.766 67.6776 238.698 67.1824 238.408 67.0576C238.118 66.9329 237.715 67.2257 237.508 67.7118C237.301 68.1978 237.368 68.693 237.658 68.8178Z" fill="#A1D8FF"/>
<path fill-rule="evenodd" clip-rule="evenodd" d="M177.099 51.8557C176.185 51.6618 175.296 51.4639 174.431 51.2619V36.1993H170.81V33.519H174.431V31.7959H177.099V33.519H195.42C197.07 34.0103 198.477 34.4832 199.644 34.9388C200.567 35.2993 201.452 35.7192 202.301 36.1993H195.643L193.327 40.4436C194.818 40.6818 195.967 42.2051 195.967 44.0488C195.967 45.0219 195.647 45.9058 195.125 46.5586L195.935 61.8537H200.351L200.275 62.4303L200.295 62.4663L200.324 62.5202C200.34 62.5516 200.358 62.5848 200.377 62.6195C200.425 62.7095 200.477 62.8101 200.532 62.9183C200.749 63.3438 201.006 63.9026 201.154 64.4608C201.3 65.0106 201.353 65.605 201.102 66.07C200.872 66.4976 200.417 66.7632 199.7 66.82L199.398 69.1288H208.546V41.59C208.808 41.917 209.066 42.254 209.318 42.6009C210.057 43.6373 210.689 44.7277 211.214 45.8709V65.0714C209.665 68.5437 207.191 71.5881 203.776 74.1896C197.483 78.9844 189.265 81.3817 179.075 81.3817C177.474 81.3817 175.926 81.3245 174.431 81.2102V73.7237H171.572V69.1288H174.431V62.5852C175.263 62.8495 176.153 63.0516 177.099 63.1911V69.1288H186.71L188.168 61.5029C188.358 61.3234 188.524 61.1313 188.666 60.9265L187.098 69.1288H192.727L191.774 61.8537H195.553L194.764 46.9443C194.251 47.4099 193.612 47.6863 192.918 47.6863C192.325 47.6863 191.771 47.4841 191.302 47.1344L189.247 57.8875C189.199 57.5885 189.124 57.3028 189.023 57.031L190.969 46.8467C190.297 46.1795 189.869 45.1737 189.869 44.0488C189.869 42.1889 191.039 40.6551 192.549 40.4376L190.643 36.1993H177.099V51.8557ZM191.061 36.1993L192.934 40.3657L195.208 36.1993H191.061ZM199.751 66.431C200.333 66.369 200.625 66.15 200.767 65.8877C200.945 65.557 200.926 65.0864 200.786 64.5594C200.648 64.0407 200.405 63.5105 200.193 63.0925L200.189 63.0855L199.751 66.431Z" fill="#A1D8FF"/>
</svg>
